<svg width="99" height="24" viewBox="0 0 99 24" fill="none" xmlns="http://www.w3.org/2000/svg">
<path d="M19.8982 6.48419C19.9117 6.67962 19.9117 6.87504 19.9117 7.07227C19.9117 13.0818 15.3368 20.0126 6.97135 20.0126V20.009C4.50017 20.0126 2.08033 19.3048 0 17.9701C0.359329 18.0133 0.720459 18.035 1.08249 18.0359C3.1304 18.0377 5.11976 17.3505 6.73089 16.0852C4.78475 16.0483 3.07816 14.7794 2.48198 12.9269C3.16372 13.0584 3.86617 13.0314 4.53529 12.8486C2.41354 12.4199 0.887066 10.5557 0.887066 8.39071C0.887066 8.3709 0.887066 8.35199 0.887066 8.33307C1.51927 8.6852 2.22712 8.88062 2.95118 8.90224C0.952807 7.56668 0.336815 4.90819 1.54358 2.82967C3.85266 5.67098 7.25953 7.39828 10.9168 7.58109C10.5502 6.00149 11.0509 4.34623 12.2325 3.23582C14.0643 1.51393 16.9452 1.60218 18.6671 3.43305C19.6857 3.23222 20.6619 2.85848 21.5552 2.32895C21.2157 3.38172 20.5052 4.27599 19.556 4.84425C20.4574 4.73798 21.3382 4.49663 22.1676 4.12829C21.557 5.04328 20.788 5.84028 19.8982 6.48419Z" fill="white"/>
<path d="M28.9198 17.52L24.3838 5.52H27.7678L30.5758 13.32L33.3118 5.52H36.6478L32.2318 17.52H28.9198Z" fill="white"/>
<path d="M42.8158 17.76C40.9758 17.76 39.4558 17.16 38.2558 15.96C37.0718 14.76 36.4798 13.28 36.4798 11.52C36.4798 9.792 37.0878 8.32 38.3038 7.104C39.5198 5.888 40.9918 5.28 42.7198 5.28C44.5278 5.28 46.0078 5.88 47.1598 7.08C48.3278 8.264 48.9118 9.736 48.9118 11.496V12.696H39.6478C39.8398 13.368 40.2078 13.904 40.7518 14.304C41.2958 14.688 41.9918 14.88 42.8398 14.88C43.4958 14.88 44.0798 14.712 44.5918 14.376C45.1198 14.04 45.5198 13.584 45.7918 13.008L48.4078 14.568C47.8638 15.544 47.1118 16.32 46.1518 16.896C45.2078 17.472 44.0958 17.76 42.8158 17.76ZM42.7438 8.16C42.0718 8.16 41.4718 8.336 40.9438 8.688C40.4318 9.024 40.0478 9.48 39.7918 10.056H45.5998C45.1678 8.792 44.2158 8.16 42.7438 8.16Z" fill="white"/>
<path d="M50.246 17.52V5.52H53.51V7.488C54.134 6.176 55.238 5.52 56.822 5.52H58.142V8.712H56.054C55.174 8.712 54.534 8.96 54.134 9.456C53.734 9.952 53.534 10.752 53.534 11.856V17.52H50.246Z" fill="white"/>
<path d="M59.621 17.52V5.52H62.909V17.52H59.621Z" fill="white"/>
<path d="M64.3498 8.472V5.52H66.3898V5.208C66.3898 3.24 66.7658 1.88 67.5178 1.128C68.2858 0.376 69.6698 0 71.6698 0H71.9338V3.072C70.9418 3.072 70.3178 3.2 70.0618 3.456C69.8058 3.696 69.6778 4.288 69.6778 5.232V5.52H71.9338V8.472H69.6778V17.52H66.3898V8.472H64.3498Z" fill="white"/>
<path d="M75.1549 23.064L77.6029 16.992L72.8269 5.52H76.2829L79.2349 12.912L81.9949 5.52H85.4029L78.4429 23.064H75.1549Z" fill="white"/>
<path d="M86.5976 17.52V5.52H89.8856V17.52H86.5976ZM86.5976 4.32V1.032H89.8856V4.32H86.5976Z" fill="white"/>
<path d="M91.3264 8.472V5.52H93.3663V2.712L96.6544 0.912V5.52H98.9104V8.472H96.6544V12.288C96.6544 13.232 96.7824 13.832 97.0384 14.088C97.2944 14.328 97.9184 14.448 98.9104 14.448V17.52H98.4304C96.5264 17.52 95.2064 17.144 94.4704 16.392C93.7344 15.624 93.3663 14.264 93.3663 12.312V8.472H91.3264Z" fill="white"/>
</svg>
